# File created by Blade
# Date/Time:  Wed Jan 21 18:40:15 2015
#---------------------------------------------------------
:version 1.10
:name HOM
:units
  mass 1.0
  length 1.000000
  angle deg
:documentation
     Acclaim Skeleton File
:root
   axis xyz
   order TX TY TZ RX RY RZ
   position 0.000000 0.000000 0.000000
   orientation 0 0 0
:bonedata
   begin
      id 1
      name RightUpLeg_dum
      direction -1.000000 0.000000 0.000000
      length 3.693983
      axis 0.0 0.0 0.0 xyz
   end
   begin
      id 2
      name LeftUpLeg_dum
      direction 1.000000 0.000000 0.000000
      length 3.693983
      axis 0.0 0.0 0.0 xyz
   end
   begin
      id 3
      name Spine_dum
      direction 0.000000 1.000000 0.000000
      length 2.392956
      axis 0.0 0.0 0.0 xyz
   end
   begin
      id 4
      name RightUpLeg
      direction 0.000000 -1.000000 0.000000
      length 15.795667
      axis 0.0 0.0 0.0 xyz
      dof rx ry rz
   end
   begin
      id 5
      name RightLeg
      direction 0.000000 -1.000000 0.000000
      length 14.766989
      axis 0.0 0.0 0.0 xyz
      dof rx ry rz
   end
   begin
      id 6
      name RightFoot
      direction 0.000000 -0.258819 0.965926
      length 4.962790
      axis 15.0 0.0 0.0 xyz
      dof rx ry rz
   end
   begin
      id 7
      name RightToeBase
      direction 0.000000 0.000000 1.000000
      length 2.952750
      axis 0.0 0.0 0.0 xyz
      dof rx ry rz
   end
   begin
      id 8
      name LeftUpLeg
      direction 0.000000 -1.000000 0.000000
      length 15.795667
      axis 0.0 0.0 0.0 xyz
      dof rx ry rz
   end
   begin
      id 9
      name LeftLeg
      direction 0.000000 -1.000000 0.000000
      length 14.766989
      axis 0.0 0.0 0.0 xyz
      dof rx ry rz
   end
   begin
      id 10
      name LeftFoot
      direction 0.000000 -0.258819 0.965926
      length 4.962790
      axis 15.0 0.0 0.0 xyz
      dof rx ry rz
   end
   begin
      id 11
      name LeftToeBase
      direction 0.000000 0.000000 1.000000
      length 2.952750
      axis 0.0 0.0 0.0 xyz
      dof rx ry rz
   end
   begin
      id 12
      name Spine
      direction 0.000000 1.000000 0.000000
      length 0.000000
      axis 0.0 0.0 0.0 xyz
      dof rx ry rz
   end
   begin
      id 13
      name Spine_dum1
      direction 0.000000 1.000000 0.000000
      length 13.207411
      axis 0.0 0.0 0.0 xyz
   end
   begin
      id 14
      name Spine_dum2
      direction 0.000000 1.000000 0.000000
      length 13.207411
      axis 0.0 0.0 0.0 xyz
   end
   begin
      id 15
      name Spine_dum3
      direction 0.000000 1.000000 0.000000
      length 19.250100
      axis 0.0 0.0 0.0 xyz
   end
   begin
      id 16
      name RightShoulder
      direction -1.000000 0.000000 0.000000
      length 8.140465
      axis 0.0 0.0 90.0 xyz
      dof rx ry rz
   end
   begin
      id 17
      name RightArm
      direction -1.000000 0.000000 0.000000
      length 10.649840
      axis 0.0 0.0 90.0 xyz
      dof rx ry rz
   end
   begin
      id 18
      name RightForeArm
      direction -1.000000 0.000000 0.000000
      length 8.304624
      axis 0.0 0.0 90.0 xyz
      dof ry rz rx
   end
   begin
      id 19
      name RightHand
      direction -1.000000 0.000000 0.000000
      length 0.000000
      axis 0.0 0.0 90.0 xyz
      dof rx ry rz
   end
   begin
      id 20
      name RightHand_dum1
      direction -1.000000 0.000000 0.000000
      length 3.937000
      axis 0.0 0.0 90.0 xyz
   end
   begin
      id 21
      name RightHand_dum2
      direction 0.000000 0.000000 0.000000
      length 0.000000
      axis 0.0 0.0 90.0 xyz
   end
   begin
      id 22
      name RightHandThumb1
      direction 0.000000 0.000000 1.000000
      length 3.937000
      axis 0.0 0.0 90.0 xyz
      dof rx rz ry
   end
   begin
      id 23
      name LeftShoulder
      direction 1.000000 0.000000 0.000000
      length 8.140465
      axis 0.0 0.0 -90.0 xyz
      dof rx ry rz
   end
   begin
      id 24
      name LeftArm
      direction 1.000000 0.000000 0.000000
      length 10.649840
      axis 0.0 0.0 -90.0 xyz
      dof rx ry rz
   end
   begin
      id 25
      name LeftForeArm
      direction 1.000000 0.000000 0.000000
      length 8.304624
      axis 0.0 0.0 -90.0 xyz
      dof ry rz rx
   end
   begin
      id 26
      name LeftHand
      direction 1.000000 0.000000 0.000000
      length 0.000000
      axis 0.0 0.0 -90.0 xyz
      dof rx ry rz
   end
   begin
      id 27
      name LeftHand_dum1
      direction 1.000000 0.000000 0.000000
      length 3.937000
      axis 0.0 0.0 -90.0 xyz
   end
   begin
      id 28
      name LeftHand_dum2
      direction 0.000000 0.000000 0.000000
      length 0.000000
      axis 0.0 0.0 -90.0 xyz
   end
   begin
      id 29
      name LeftHandThumb1
      direction 0.000000 0.000000 1.000000
      length 3.937000
      axis 0.0 0.0 -90.0 xyz
      dof rx rz ry
   end
   begin
      id 30
      name Head
      direction 0.000000 1.000000 0.000000
      length 4.527550
      axis 0.0 0.0 0.0 xyz
      dof rx ry rz
   end
:hierarchy
   begin
      root RightUpLeg_dum LeftUpLeg_dum Spine_dum
      RightUpLeg_dum RightUpLeg
      LeftUpLeg_dum LeftUpLeg
      Spine_dum Spine
      RightUpLeg RightLeg
      RightLeg RightFoot
      RightFoot RightToeBase
      LeftUpLeg LeftLeg
      LeftLeg LeftFoot
      LeftFoot LeftToeBase
      Spine Spine_dum1 Spine_dum2 Spine_dum3
      Spine_dum1 RightShoulder
      Spine_dum2 LeftShoulder
      Spine_dum3 Head
      RightShoulder RightArm
      RightArm RightForeArm
      RightForeArm RightHand
      RightHand RightHand_dum1 RightHand_dum2
      RightHand_dum2 RightHandThumb1
      LeftShoulder LeftArm
      LeftArm LeftForeArm
      LeftForeArm LeftHand
      LeftHand LeftHand_dum1 LeftHand_dum2
      LeftHand_dum2 LeftHandThumb1
   end

# File created by Blade
# Date/Time:  Wed Jan 21 18:40:08 2015
# Frame Rate: 120.000 fps
#------------------------------------------------------
:FULLY-SPECIFIED
:DEGREES
968
root 3.149960 28.133440 -10.181499 92.525154 -26.435360 46.194918
RightUpLeg -166.639836 -56.608088 48.322415
RightLeg -5.221180 -0.000000 0.000000
RightFoot 12.701764 0.807262 54.221854
RightToeBase 20.373069 -0.000000 -0.000000
LeftUpLeg -90.439281 -24.797461 -25.204001
LeftLeg -7.255908 -0.000000 0.000000
LeftFoot 2.587121 9.534662 -22.283679
LeftToeBase 8.204679 -0.000000 -0.000000
Spine -29.859042 41.165784 9.630807
RightShoulder -14.444297 34.527934 -42.631344
RightArm -0.238299 36.438416 31.295746
RightForeArm -23.389942 0.000000 73.976721
RightHand 10.090584 -0.000000 -33.073908
RightHandThumb1 -24.326973 -0.000000 -32.862282
LeftShoulder -21.504702 11.810388 39.992113
LeftArm -4.308251 3.599926 -73.460648
LeftForeArm 10.276112 -0.000000 -9.610135
LeftHand -25.293789 -0.000000 -0.819699
LeftHandThumb1 -26.253704 0.000000 33.147579
Head -50.514190 6.481139 2.873620
969
root 3.150522 28.130070 -10.184487 92.534071 -26.441276 46.234776
RightUpLeg -166.732922 -56.603466 48.410040
RightLeg -5.258765 -0.000000 0.000000
RightFoot 12.731555 0.808374 54.280788
RightToeBase 20.435855 -0.000000 -0.000000
LeftUpLeg -90.451421 -24.831264 -25.187000
LeftLeg -7.273304 -0.000000 0.000000
LeftFoot 2.587596 9.515836 -22.268798
LeftToeBase 8.253040 -0.000000 -0.000000
Spine -29.816744 41.149920 9.705458
RightShoulder -14.449716 34.614067 -42.653061
RightArm -0.205333 36.395482 31.248024
RightForeArm -23.413456 -0.000000 74.130954
RightHand 10.010467 -0.000000 -32.985459
RightHandThumb1 -24.326973 -0.000000 -32.862282
LeftShoulder -21.527515 11.772703 39.994282
LeftArm -4.341001 3.621924 -73.405618
LeftForeArm 10.068209 -0.000000 -9.622511
LeftHand -25.264645 -0.000000 -1.100361
LeftHandThumb1 -26.253704 0.000000 33.147579
Head -50.564310 6.423691 2.863990
970
root 3.149871 28.125945 -10.190502 92.558001 -26.452339 46.255129
RightUpLeg -166.801948 -56.607692 48.461165
RightLeg -5.290479 -0.000000 0.000000
RightFoot 12.710976 0.753768 54.526288
RightToeBase 20.680345 -0.000000 -0.000000
LeftUpLeg -90.479991 -24.853497 -25.196422
LeftLeg -7.273720 -0.000000 0.000000
LeftFoot 2.581179 9.483998 -22.269056
LeftToeBase 8.264950 -0.000000 -0.000000
Spine -29.785818 41.157869 9.763316
RightShoulder -14.454742 34.613500 -42.669030
RightArm -0.111468 36.440949 31.276592
RightForeArm -23.477059 0.000000 74.280247
RightHand 9.975304 -0.000000 -32.872810
RightHandThumb1 -24.326973 -0.000000 -32.862282
LeftShoulder -21.526817 11.795022 39.955206
LeftArm -4.291672 3.518229 -73.313173
LeftForeArm 10.001004 -0.000000 -9.677812
LeftHand -25.227032 -0.000000 -1.332815
LeftHandThumb1 -26.253704 0.000000 33.147579
Head -50.597588 6.341056 2.854084
971
root 3.150986 28.122707 -10.196699 92.593418 -26.482713 46.274019
RightUpLeg -166.876763 -56.606018 48.491033
RightLeg -5.319620 -0.000000 0.000000
RightFoot 12.732117 0.746725 54.451914
RightToeBase 20.541988 -0.000000 -0.000000
LeftUpLeg -90.514927 -24.884865 -25.217105
LeftLeg -7.289472 -0.000000 0.000000
LeftFoot 2.616433 9.470664 -22.181281
LeftToeBase 8.189129 -0.000000 -0.000000
Spine -29.775938 41.153109 9.781623
RightShoulder -14.458966 34.572106 -42.658452
RightArm 0.043331 36.487815 31.320358
RightForeArm -23.507070 -0.000000 74.388183
RightHand 9.916966 0.000000 -32.858599
RightHandThumb1 -24.326973 -0.000000 -32.862282
LeftShoulder -21.532275 11.795398 39.966832
LeftArm -4.285634 3.426064 -73.269505
LeftForeArm 9.979555 -0.000000 -9.720245
LeftHand -25.229248 -0.000000 -1.286316
LeftHandThumb1 -26.253704 0.000000 33.147579
Head -50.626322 6.308780 2.887557
